<svg xmlns="http://www.w3.org/2000/svg" width="62.798" height="71.853" viewBox="0 0 62.798 71.853">
  <g id="Group_374" data-name="Group 374" transform="translate(-1717.202 -517.437)">
    <path id="Path_222" data-name="Path 222" d="M103.462,190.005a17.5,17.5,0,0,0-29.46,0l-7.791,12.154a11.074,11.074,0,0,0,13.78,16.114l.147-.065a21.769,21.769,0,0,1,17.334.065,11.013,11.013,0,0,0,4.444.94,11.154,11.154,0,0,0,2.479-.281,11.075,11.075,0,0,0,6.858-16.774Zm0,0" transform="translate(1936.416 462.024) rotate(90)" fill="#ffd609"/>
    <path id="Path_223" data-name="Path 223" d="M12.9,118.59a8.493,8.493,0,0,0,4.958-5.259,10.972,10.972,0,0,0-.194-7.567,10.98,10.98,0,0,0-4.93-5.743,8.494,8.494,0,0,0-7.2-.58c-4.655,1.79-6.792,7.543-4.762,12.827a10.259,10.259,0,0,0,9.227,6.861,8.044,8.044,0,0,0,2.9-.538Zm0,0" transform="translate(1865.016 517.437) rotate(90)" fill="#ffd609"/>
    <path id="Path_224" data-name="Path 224" d="M134.967,24.052c5.82,0,10.554-5.394,10.554-12.025S140.787,0,134.967,0s-10.553,5.4-10.553,12.027S129.148,24.052,134.967,24.052Zm0,0" transform="translate(1780 410.483) rotate(90)" fill="#ffd609"/>
    <path id="Path_225" data-name="Path 225" d="M290.552,61.61h0a8.6,8.6,0,0,0,2.718.439c4.244,0,8.38-3.089,9.958-7.836a11.793,11.793,0,0,0-.168-8.136,8.921,8.921,0,0,0-13.227-4.4,11.794,11.794,0,0,0-5,6.416c-1.916,5.765.651,11.827,5.723,13.513Zm0,0" transform="translate(1814.604 273.125) rotate(90)" fill="#ffd609"/>
    <path id="Path_226" data-name="Path 226" d="M392.332,172.652l0,0c-4.013-2.965-10.015-1.68-13.381,2.866s-2.836,10.662,1.171,13.629a8.251,8.251,0,0,0,4.956,1.6,10.671,10.671,0,0,0,8.427-4.463C396.865,181.734,396.34,175.62,392.332,172.652Zm0,0" transform="translate(1927.049 193.571) rotate(90)" fill="#ffd609"/>
  </g>
</svg>
