<svg xmlns="http://www.w3.org/2000/svg" width="250.529" height="90.998" viewBox="0 0 250.529 90.998"><defs><style>.a{fill:#e6e6e6;}.b,.c{fill:#ffd609;}.c{font-size:23px;font-family:MuseoSansCyrl-900, 'Museo Sans Cyrl 900';font-weight:900;}</style></defs><g transform="translate(-9597.19 -7256.74)"><g transform="translate(9597.19 7256.74)"><path d="M9659.281,7728.333a34.129,34.129,0,0,1-34.13,34.241h-25.229a2.371,2.371,0,0,1-.336-.02,2.415,2.415,0,0,1-2.07-2.163,1.845,1.845,0,0,1,0-.446v-.049a1.922,1.922,0,0,1,.054-.288c2.278-9.191,14.541-20.061,30.174-20.061,10.269,0,15.405-1.092,17.162-7.862a24.242,24.242,0,0,0,.67-5.014,1.543,1.543,0,0,0-1.469-1.607c-3.619-.176-9.507-3.327-11.363-9.837-.752-2.651-3.705-4.178-7.863-4.775h0c-.576-.084-1.172-.149-1.794-.2l-.011.006c-9.6,2.518-1.629,23.415-16.953,21.743-.192-.02-.373-.047-.555-.08-9.607-1.532-6.531-14.568,3.674-20.524a71.977,71.977,0,0,0-12.052,3.556V7698.7a4.387,4.387,0,0,1,4.392-4.386h23.063C9643.537,7694.31,9659.223,7709.442,9659.281,7728.333Z" transform="translate(-9597.19 -7671.576)"/><path d="M10187.672,8161.941a1.111,1.111,0,1,1-1.111-1.111A1.111,1.111,0,0,1,10187.672,8161.941Z" transform="translate(-10154.888 -8113.859)"/><path class="a" d="M9777.82,8001.417c-7.02,1.464-1.053,25.624-19.311,21.477v0c.181.033.361.06.553.08,15.325,1.672,7.352-19.226,16.955-21.743l.01,0C9776.65,8001.269,9777.246,8001.332,9777.82,8001.417Z" transform="translate(-9750.129 -7962.542)"/><path class="b" d="M9650.95,8413.73c-1.757,6.77-6.894,7.861-17.161,7.861-15.633,0-27.9,10.869-30.175,20.061a1.923,1.923,0,0,0-.054.289C9603.906,8404.793,9643.391,8424.717,9650.95,8413.73Z" transform="translate(-9603.229 -8353.62)"/><path d="M10927.227,7728.63v-.187c0-9.471-6.845-17.722-16.879-17.722-9.939,0-16.6,8.064-16.6,17.535v.188c0,9.472,6.846,17.723,16.785,17.723C10920.567,7746.166,10927.227,7738.1,10927.227,7728.63Zm-52.137,0v-.187c0-18.848,15.191-34.132,35.445-34.132s35.258,15.1,35.258,33.945v.188c0,18.848-15.191,34.132-35.445,34.132S10875.09,7747.479,10875.09,7728.63Z" transform="translate(-10808.698 -7671.577)"/><path d="M12311,7728.63v-.187c0-19.129,15-34.132,35.351-34.132,11.534,0,19.694,3.563,26.633,9.564l-10.69,12.847c-4.689-3.938-9.379-6.188-15.846-6.188-9.472,0-16.785,7.971-16.785,18v.188c0,10.595,7.406,18.19,17.816,18.19a18.549,18.549,0,0,0,10.5-2.719v-7.971h-12.94v-13.314h30.193v29.536a44.368,44.368,0,0,1-28.506,10.127C12326.285,7762.575,12311,7748.51,12311,7728.63Z" transform="translate(-12170.007 -7671.577)"/><g transform="translate(204.529 0)"><text class="c" transform="translate(0 22)"><tspan x="0" y="0">JOY</tspan></text></g></g></g></svg>